<?xml version="1.0" encoding="UTF-8"?>
<svg version="1.1" xmlns="http://www.w3.org/2000/svg" width="500" height="500">
<path d="M0 0 C165 0 330 0 500 0 C500 165 500 330 500 500 C335 500 170 500 0 500 C0 335 0 170 0 0 Z " fill="#000000" transform="translate(0,0)"/>
<path d="M0 0 C1.356167 0.01494724 2.71237762 0.02632253 4.06860352 0.03430176 C7.61417882 0.06464477 11.15707315 0.14303764 14.70159912 0.23193359 C18.32804094 0.3142208 21.95492215 0.35040349 25.58203125 0.390625 C32.68088026 0.4760627 39.77748147 0.61660378 46.875 0.78125 C46.875 5.73125 46.875 10.68125 46.875 15.78125 C28.395 16.11125 9.915 16.44125 -9.125 16.78125 C-9.125 17.11125 -9.125 17.44125 -9.125 17.78125 C-8.63 17.28625 -8.63 17.28625 -8.125 16.78125 C-6.34508076 16.68754376 -4.56143261 16.66380729 -2.77905273 16.66772461 C-1.06739174 16.66783791 -1.06739174 16.66783791 0.67884827 16.66795349 C1.9204924 16.67311478 3.16213654 16.67827606 4.44140625 16.68359375 C6.33704567 16.68571617 6.33704567 16.68571617 8.27098083 16.68788147 C11.63624889 16.69254418 15.0014499 16.7015352 18.36669922 16.71258545 C21.7984967 16.72280154 25.23030109 16.72737951 28.66210938 16.73242188 C35.39975824 16.7434762 42.13737525 16.7602329 48.875 16.78125 C48.875 18.10125 48.875 19.42125 48.875 20.78125 C48.19563385 20.77157196 47.5162677 20.76189392 46.8163147 20.75192261 C39.70982868 20.660596 32.60556326 20.63989332 25.49853516 20.65917969 C22.85067495 20.65723963 20.2027638 20.63762401 17.55517578 20.59960938 C13.73579753 20.5478991 9.9211177 20.56092644 6.1015625 20.5859375 C4.92824371 20.55619843 3.75492493 20.52645935 2.54605103 20.49581909 C-4.30725655 20.613662 -7.73947429 21.68049465 -12.63916016 26.60595703 C-13.38992828 27.47688995 -14.14069641 28.34782288 -14.91421509 29.24514771 C-17.125 31.78125 -17.125 31.78125 -22.125 35.78125 C-4.305 36.11125 13.515 36.44125 31.875 36.78125 C32.875 42.78125 32.875 42.78125 32.875 57.78125 C4.495 57.78125 -23.885 57.78125 -53.125 57.78125 C-53.125 56.13125 -53.125 54.48125 -53.125 52.78125 C-53.785 52.78125 -54.445 52.78125 -55.125 52.78125 C-55.93792145 47.01854015 -56.58015487 41.90846434 -53.1796875 36.9375 C-50.60278952 34.38424329 -47.94669113 32.05983705 -45.125 29.78125 C-43.89242035 28.70180143 -42.662975 27.61875762 -41.4375 26.53125 C-40.80457031 25.98855469 -40.17164062 25.44585937 -39.51953125 24.88671875 C-36.16260054 21.93502927 -32.89449004 18.89168193 -29.625 15.84375 C-28.69941284 14.98378418 -28.69941284 14.98378418 -27.75512695 14.10644531 C-27.14499756 13.53635742 -26.53486816 12.96626953 -25.90625 12.37890625 C-25.01694038 11.56423637 -25.01694038 11.56423637 -24.10966492 10.73310852 C-22.09798491 8.83889969 -22.09798491 8.83889969 -20.50231934 6.7073822 C-14.58424742 -0.48031627 -8.88613587 -0.28376501 0 0 Z " fill="#F8F8F8" transform="translate(125.125,208.21875)"/>
<path d="M0 0 C5 0 5 0 6.6328125 1.328125 C7.12523437 1.96234375 7.61765625 2.5965625 8.125 3.25 C11.64920536 7.59703744 15.3689795 11.6925775 19.18017578 15.78613281 C21.61604013 18.42302777 23.91269328 21.0777706 26 24 C29.27679215 22.90773595 29.92308502 22.20070846 32.0625 19.625 C35.85188549 15.14883889 39.79511134 10.83140072 43.765625 6.515625 C46.00411773 4.12878124 46.00411773 4.12878124 47.484375 1.671875 C47.98453125 1.12015625 48.4846875 0.5684375 49 0 C50.65 0 52.3 0 54 0 C54 19.47 54 38.94 54 59 C50.04 59 46.08 59 42 59 C41.67 48.77 41.34 38.54 41 28 C34.15895464 34.70421292 34.15895464 34.70421292 28 42 C23.75103867 40.40158121 21.17643105 37.1845498 18.25 33.875 C16.5175 31.93625 14.785 29.9975 13 28 C12.67 38.23 12.34 48.46 12 59 C8.04 59 4.08 59 0 59 C0 39.53 0 20.06 0 0 Z " fill="#F8F8F8" transform="translate(383,228)"/>
<path d="M0 0 C3 1 3 1 4.59057617 4.10083008 C5.16941919 5.48569577 5.73600039 6.87572407 6.29296875 8.26953125 C6.7542215 9.38621185 6.7542215 9.38621185 7.22479248 10.52545166 C8.22317152 12.95019436 9.20562099 15.38103437 10.1875 17.8125 C10.86383689 19.46640322 11.54100189 21.11996804 12.21899414 22.77319336 C13.86543417 26.79526753 15.49891849 30.82245543 17.12866211 34.85131836 C18.33107557 37.81641807 19.54830142 40.7753708 20.765625 43.734375 C21.49057938 45.51001033 22.21464689 47.28600822 22.9375 49.0625 C23.42222778 50.24453003 23.42222778 50.24453003 23.91674805 51.45043945 C25.12051412 54.45387849 26 56.73220872 26 60 C21.71 60 17.42 60 13 60 C12.34 58.35 11.68 56.7 11 55 C4.4 54.67 -2.2 54.34 -9 54 C-9.33 55.98 -9.66 57.96 -10 60 C-14.62 60 -19.24 60 -24 60 C-17.36827699 42.46701551 -10.41137462 25.10542652 -3.16992188 7.81713867 C-2.09125482 5.21973901 -1.03779423 2.61395919 0 0 Z " fill="#F8F8F8" transform="translate(335,227)"/>
<path d="M0 0 C1.0209375 -0.01160156 1.0209375 -0.01160156 2.0625 -0.0234375 C4 0.375 4 0.375 7 3.375 C7 6.345 7 9.315 7 12.375 C28.78 12.375 50.56 12.375 73 12.375 C73 17.325 73 22.275 73 27.375 C63.15992857 27.4653524 53.32013243 27.53874533 43.47974014 27.58224869 C38.91049036 27.60312765 34.34153898 27.63145071 29.77246094 27.67675781 C25.36339127 27.72020488 20.9546087 27.74413478 16.54534149 27.75450897 C14.86278513 27.76190243 13.18024457 27.77634017 11.49781036 27.79792023 C9.14174899 27.82694003 6.78687527 27.83095675 4.43066406 27.82910156 C3.73438904 27.84348267 3.03811401 27.85786377 2.32073975 27.87268066 C-1.05356882 27.84391337 -2.73290883 27.58228196 -5.43305969 25.48677063 C-7.27274823 23.00741632 -7.50319694 21.77322906 -7.49609375 18.71484375 C-7.49673828 17.83892578 -7.49738281 16.96300781 -7.49804688 16.06054688 C-7.47806641 15.15369141 -7.45808594 14.24683594 -7.4375 13.3125 C-7.44458984 12.40177734 -7.45167969 11.49105469 -7.45898438 10.55273438 C-7.39495302 3.86884558 -7.39495302 3.86884558 -5.59399414 1.61694336 C-3.60678928 0.0686341 -2.49746574 -0.02838029 0 0 Z " fill="#F5F5F5" transform="translate(100,271.625)"/>
<path d="M0 0 C9.57 0 19.14 0 29 0 C29 3.96 29 7.92 29 12 C23.39 12 17.78 12 12 12 C12 15.63 12 19.26 12 23 C16.95 23 21.9 23 27 23 C27 26.96 27 30.92 27 35 C22.05 35 17.1 35 12 35 C12 38.63 12 42.26 12 46 C17.94 46 23.88 46 30 46 C30 49.96 30 53.92 30 58 C20.1 58 10.2 58 0 58 C0 38.86 0 19.72 0 0 Z " fill="#F9F9F9" transform="translate(208,229)"/>
<path d="M0 0 C3.96 0 7.92 0 12 0 C12 15.18 12 30.36 12 46 C17.94 46 23.88 46 30 46 C30 49.96 30 53.92 30 58 C20.1 58 10.2 58 0 58 C0 38.86 0 19.72 0 0 Z " fill="#F5F5F5" transform="translate(263,229)"/>
<path d="M0 0 C20.79 0 41.58 0 63 0 C64 6 64 6 64 21 C35.62 21 7.24 21 -22 21 C-22 19.35 -22 17.7 -22 16 C-22.66 15.67 -23.32 15.34 -24 15 C4.38 15 32.76 15 62 15 C62 10.38 62 5.76 62 1 C41.54 1 21.08 1 0 1 C0 0.67 0 0.34 0 0 Z " fill="#F3F4F3" transform="translate(94,245)"/>
<path d="M0 0 C1.01037827 0.00222061 2.02075653 0.00444122 3.06175232 0.00672913 C4.77341331 0.00684242 4.77341331 0.00684242 6.51965332 0.00695801 C7.76129745 0.01211929 9.00294159 0.01728058 10.2822113 0.02259827 C12.17785072 0.02472069 12.17785072 0.02472069 14.11178589 0.02688599 C17.47705394 0.0315487 20.84225495 0.04053972 24.20750427 0.05158997 C27.63930175 0.06180606 31.07110614 0.06638403 34.50291443 0.07142639 C41.2405633 0.08248071 47.9781803 0.09923742 54.71580505 0.12025452 C54.71580505 1.44025452 54.71580505 2.76025452 54.71580505 4.12025452 C54.0364389 4.11057648 53.35707275 4.10089844 52.65711975 4.09092712 C45.55063373 3.99960052 38.44636831 3.97889783 31.33934021 3.9981842 C28.69148001 3.99624414 26.04356885 3.97662852 23.39598083 3.93861389 C19.57660259 3.88690362 15.76192275 3.89993096 11.94236755 3.92494202 C10.76904877 3.89520294 9.59572998 3.86546387 8.38685608 3.83482361 C1.53354851 3.95266652 -1.89866924 5.01949917 -6.7983551 9.94496155 C-7.54912323 10.81589447 -8.29989136 11.68682739 -9.07341003 12.58415222 C-14.66453858 18.9980163 -14.66453858 18.9980163 -19.59669495 19.37025452 C-20.48356995 19.28775452 -21.37044495 19.20525452 -22.28419495 19.12025452 C-20.64008779 14.94442407 -17.594595 12.09927368 -14.47169495 8.99525452 C-13.95026917 8.45771545 -13.42884338 7.92017639 -12.89161682 7.36634827 C-9.87247557 4.3434378 -7.43617478 2.44709906 -3.28419495 1.12025452 C-2.28419495 0.12025452 -2.28419495 0.12025452 0 0 Z " fill="#E0E0E0" transform="translate(119.28419494628906,224.87974548339844)"/>
<path d="M0 0 C26.07 0.33 52.14 0.66 79 1 C79 2.32 79 3.64 79 5 C69.14268821 5.06945503 59.28543446 5.12278834 49.42792797 5.15543652 C44.85087134 5.17110459 40.27398189 5.19236359 35.69702148 5.22631836 C31.28148565 5.25887126 26.8661108 5.27684441 22.45046425 5.28463173 C20.76431048 5.29018258 19.0781657 5.30102185 17.39208031 5.31719017 C15.03357146 5.33891075 12.67573115 5.34196924 10.31713867 5.34057617 C9.61726837 5.351362 8.91739807 5.36214783 8.19631958 5.3732605 C5.30300859 5.35472103 3.43727012 5.31193356 1.04267883 3.60371399 C0 2 0 2 0 0 Z " fill="#EFF0EF" transform="translate(95,299)"/>
<path d="M0 0 C20.79 0 41.58 0 63 0 C63.67464018 4.0478411 64.13714351 7.31121438 64.125 11.3125 C64.12886719 12.60607422 64.12886719 12.60607422 64.1328125 13.92578125 C64 16 64 16 63 17 C60.36338019 17.1057525 57.75281879 17.14678029 55.11547852 17.14526367 C53.87649811 17.15030159 53.87649811 17.15030159 52.61248779 17.15544128 C49.86794553 17.1649805 47.12346408 17.16689587 44.37890625 17.16796875 C42.47940546 17.17117925 40.57990492 17.17454316 38.68040466 17.17805481 C34.69309923 17.18405351 30.70581549 17.18589395 26.71850586 17.18530273 C21.5990541 17.18520107 16.47974089 17.19885489 11.360322 17.21607494 C7.43563696 17.22717141 3.51098567 17.22922267 -0.41371346 17.22869301 C-2.30163107 17.22987663 -4.18954945 17.23431961 -6.07745171 17.24202538 C-8.71376231 17.25177803 -11.34976891 17.24896607 -13.98608398 17.24291992 C-15.16516075 17.25134918 -15.16516075 17.25134918 -16.36805725 17.25994873 C-21.77168452 17.22831548 -21.77168452 17.22831548 -24 15 C4.38 15 32.76 15 62 15 C62 10.38 62 5.76 62 1 C41.54 1 21.08 1 0 1 C0 0.67 0 0.34 0 0 Z " fill="#9B9B9B" transform="translate(94,245)"/>
<path d="M0 0 C20.13 0 40.26 0 61 0 C61 1.98 61 3.96 61 6 C61.66 6 62.32 6 63 6 C63 11.28 63 16.56 63 22 C44.19 22 25.38 22 6 22 C6 21.67 6 21.34 6 21 C24.48 21 42.96 21 62 21 C62 19.68 62 18.36 62 17 C54.63703195 17.0844324 47.27427682 17.17932683 39.91161728 17.28752708 C36.49271441 17.33744294 33.07384172 17.38377312 29.65478516 17.421875 C25.72280523 17.46585076 21.7911375 17.52548319 17.859375 17.5859375 C16.63321472 17.59748871 15.40705444 17.60903992 14.14373779 17.62094116 C13.00285706 17.64081085 11.86197632 17.66068054 10.68652344 17.68115234 C9.68280701 17.69447601 8.67909058 17.70779968 7.6449585 17.7215271 C4.96429562 18.00375912 3.29779216 18.63066255 1 20 C2.15742493 18.02838135 2.15742493 18.02838135 4 16 C6.48674011 15.51898193 6.48674011 15.51898193 9.48120117 15.54589844 C10.60213669 15.54620056 11.7230722 15.54650269 12.87797546 15.54681396 C14.08742325 15.56745911 15.29687103 15.58810425 16.54296875 15.609375 C17.78170242 15.61503479 19.0204361 15.62069458 20.29670715 15.62652588 C23.58664278 15.64513776 26.87579481 15.68106332 30.16546631 15.7253418 C33.52362479 15.76629371 36.88189805 15.7845366 40.24023438 15.8046875 C46.82716974 15.84883638 53.41343261 15.91790866 60 16 C60 11.05 60 6.1 60 1 C40.2 1 20.4 1 0 1 C0 0.67 0 0.34 0 0 Z " fill="#626263" transform="translate(112,208)"/>
<path d="M0 0 C0.66 0.66 1.32 1.32 2 2 C4.8323903 2.33264555 4.8323903 2.33264555 8.19384766 2.31884766 C10.14564438 2.34865219 10.14564438 2.34865219 12.13687134 2.37905884 C13.5626 2.3909362 14.98833045 2.402599 16.4140625 2.4140625 C17.86853138 2.43276674 19.32298933 2.45233959 20.7774353 2.4727478 C24.60784469 2.52415394 28.43828928 2.56373399 32.26885986 2.60089111 C36.17672497 2.64087782 40.08444252 2.6919944 43.9921875 2.7421875 C51.66135723 2.8390471 59.33059813 2.92341947 67 3 C67 3.66 67 4.32 67 5 C44.89 5 22.78 5 0 5 C0 3.35 0 1.7 0 0 Z " fill="#040404" transform="translate(107,279)"/>
<path d="M0 0 C0.66 0.33 1.32 0.66 2 1 C1.01 1.99 0.02 2.98 -1 4 C14.84 4.33 30.68 4.66 47 5 C45 7 45 7 42.48165894 7.24050903 C40.88948044 7.2338472 40.88948044 7.2338472 39.26513672 7.22705078 C38.06404266 7.22689972 36.86294861 7.22674866 35.62545776 7.22659302 C34.32335358 7.21627045 33.02124939 7.20594788 31.6796875 7.1953125 C30.33733327 7.19158276 28.99497633 7.18873561 27.65261841 7.18673706 C24.117986 7.17909744 20.58351772 7.1594463 17.0489502 7.1373291 C13.4428123 7.11687765 9.83664791 7.10773685 6.23046875 7.09765625 C-0.84642135 7.0762006 -7.92319997 7.04206079 -15 7 C-12 5 -12 5 -9.1875 5.1875 C-4.68394053 4.92258474 -3.21834781 3.06509315 0 0 Z " fill="#060606" transform="translate(109,238)"/>
<path d="M0 0 C2.17186421 2.17186421 2.6793248 3.49976531 3.625 6.375 C3.88539063 7.14585937 4.14578125 7.91671875 4.4140625 8.7109375 C5 11 5 11 5 15 C1.7 15 -1.6 15 -5 15 C-1.85714286 4.28571429 -1.85714286 4.28571429 0 0 Z " fill="#1A1A1A" transform="translate(336,255)"/>
<path d="M0 0 C0.66 0.66 1.32 1.32 2 2 C4.50375468 2.24515697 6.90549479 2.37333658 9.4140625 2.4140625 C10.14370209 2.43342865 10.87334167 2.4527948 11.62509155 2.4727478 C13.95827502 2.53258422 16.29150773 2.57894423 18.625 2.625 C20.20575082 2.66317614 21.78648076 2.70222765 23.3671875 2.7421875 C27.2446223 2.83828878 31.12215449 2.92230412 35 3 C35 3.33 35 3.66 35 4 C17.675 4.495 17.675 4.495 0 5 C0 3.35 0 1.7 0 0 Z " fill="#181817" transform="translate(107,279)"/>
<path d="M0 0 C0.66 0.33 1.32 0.66 2 1 C0.515 2.485 0.515 2.485 -1 4 C6.92 4.33 14.84 4.66 23 5 C23 5.33 23 5.66 23 6 C13.43 6 3.86 6 -6 6 C-4 4 -2 2 0 0 Z " fill="#090909" transform="translate(109,238)"/>
<path d="M0 0 C0.66 0.33 1.32 0.66 2 1 C0.68 2.65 -0.64 4.3 -2 6 C-3.32 5.67 -4.64 5.34 -6 5 C-4.02 3.35 -2.04 1.7 0 0 Z " fill="#2A2A2A" transform="translate(109,238)"/>
</svg>
